<?xml version="1.0" encoding="iso-8859-1"?>
<!-- Generator: Adobe Illustrator 19.0.0, SVG Export Plug-In . SVG Version: 6.00 Build 0)  -->
<svg version="1.1" id="Capa_1" xmlns="http://www.w3.org/2000/svg" xmlns:xlink="http://www.w3.org/1999/xlink" x="0px" y="0px"
	 viewBox="0 0 512 512" style="enable-background:new 0 0 512 512;" xml:space="preserve">
<path style="fill:#F3F3F3;" d="M491.52,503.808H20.48c-11.264,0-20.48-9.216-20.48-20.48V149.504h512v334.848
	C512,494.592,502.784,503.808,491.52,503.808z"/>
<g>
	<rect x="169.984" y="398.336" style="fill:#FFD15C;" width="53.248" height="53.248"/>
	<rect x="288.768" y="398.336" style="fill:#FFD15C;" width="53.248" height="53.248"/>
	<rect x="407.552" y="398.336" style="fill:#FFD15C;" width="53.248" height="53.248"/>
	<rect x="52.224" y="398.336" style="fill:#FFD15C;" width="53.248" height="53.248"/>
	<rect x="407.552" y="300.032" style="fill:#FFD15C;" width="53.248" height="53.248"/>
	<rect x="288.768" y="300.032" style="fill:#FFD15C;" width="53.248" height="53.248"/>
	<rect x="407.552" y="201.728" style="fill:#FFD15C;" width="53.248" height="53.248"/>
	<rect x="288.768" y="201.728" style="fill:#FFD15C;" width="53.248" height="53.248"/>
</g>
<path style="fill:#425A6B;" d="M491.52,56.32H20.48C9.216,56.32,0,65.536,0,76.8v71.68h512V76.8
	C512,65.536,502.784,56.32,491.52,56.32z"/>
<g>
	<path style="fill:#CED6E0;" d="M81.92,8.192c-6.144,0-11.264,5.12-11.264,11.264v74.752c0,6.144,5.12,11.264,11.264,11.264
		c6.144,0,11.264-5.12,11.264-11.264V19.456C93.184,13.312,88.064,8.192,81.92,8.192z"/>
	<path style="fill:#CED6E0;" d="M197.632,8.192c-6.144,0-11.264,5.12-11.264,11.264v74.752c0,6.144,5.12,11.264,11.264,11.264
		s11.264-5.12,11.264-11.264V19.456C208.896,13.312,203.776,8.192,197.632,8.192z"/>
	<path style="fill:#CED6E0;" d="M314.368,8.192c-6.144,0-11.264,5.12-11.264,11.264v74.752c0,6.144,5.12,11.264,11.264,11.264
		c6.144,0,11.264-5.12,11.264-11.264V19.456C325.632,13.312,320.512,8.192,314.368,8.192z"/>
	<path style="fill:#CED6E0;" d="M430.08,8.192c-6.144,0-11.264,5.12-11.264,11.264v74.752c0,6.144,5.12,11.264,11.264,11.264
		s11.264-5.12,11.264-11.264V19.456C441.344,13.312,436.224,8.192,430.08,8.192z"/>
</g>
<path style="fill:#F26F5A;" d="M191.488,265.216h-47.104v-47.104c0-6.144-5.12-11.264-11.264-11.264
	c-6.144,0-11.264,5.12-11.264,11.264v47.104H73.728c-6.144,0-11.264,5.12-11.264,11.264c0,6.144,5.12,11.264,11.264,11.264h47.104
	v47.104c0,6.144,5.12,11.264,11.264,11.264c6.144,0,11.264-5.12,11.264-11.264v-47.104h47.104c6.144,0,11.264-5.12,11.264-11.264
	C202.752,270.336,197.632,265.216,191.488,265.216z"/>
<g>
</g>
<g>
</g>
<g>
</g>
<g>
</g>
<g>
</g>
<g>
</g>
<g>
</g>
<g>
</g>
<g>
</g>
<g>
</g>
<g>
</g>
<g>
</g>
<g>
</g>
<g>
</g>
<g>
</g>
</svg>
