<svg id="Layer_1" enable-background="new 0 0 512 512" height="512" viewBox="0 0 512 512" width="512" xmlns="http://www.w3.org/2000/svg"><path d="m406 512h-345c-24.853 0-45-20.147-45-45v-422h30c0 8.276 6.724 15 15 15h315c16.569 0 30 13.431 30 30v90h-300v180h270c16.569 0 30 13.431 30 30z" fill="#766e6e"/><path d="m376 60h-164.835v120h194.835v-90c0-16.569-13.431-30-30-30z" fill="#5b5555"/><path d="m211.165 360h194.835v152h-194.835z" fill="#5b5555"/><path d="m496 390h-420v-240h420z" fill="#ff9100"/><path d="m211.165 150h284.835v240h-284.835z" fill="#ff641a"/><path d="m166 330h-30v-120h45c24.814 0 45 20.186 45 45s-20.186 45-45 45h-15zm0-60h15c8.276 0 15-6.724 15-15s-6.724-15-15-15h-15z" fill="#ffe6b3"/><g fill="#ffca80"><path d="m226 255c0-13.171-5.788-24.922-14.835-33.159v66.317c9.047-8.236 14.835-19.987 14.835-33.158z"/><path d="m286 330h-30v-120h30c33.091 0 60 26.909 60 60s-26.909 60-60 60zm0-90v60c16.538 0 30-13.462 30-30s-13.462-30-30-30z"/><path d="m436 240v-30h-60v120h30v-30h30v-30h-30v-30z"/></g><path d="m406 90h-345c-24.814 0-45-20.186-45-45s20.186-45 45-45h345z" fill="#d9f2ff"/><path d="m211.165 0h194.835v90h-194.835z" fill="#cdf"/></svg>