<?xml version="1.0"?>
<svg xmlns="http://www.w3.org/2000/svg" xmlns:xlink="http://www.w3.org/1999/xlink" width="512px" height="512px" viewBox="0 0 60 60" version="1.1" class=""><g><title>004 - Printer</title><desc>Created with Sketch.</desc><defs/><g id="Page-1" stroke="none" stroke-width="1" fill="none" fill-rule="evenodd"><g id="004---Printer" fill-rule="nonzero"><path d="M59,24 L29.33,27 L27.86,26.84 L1,24 L9.51,14.64 C10.4554294,13.5940207 11.800069,12.9980183 13.21,13 L46.79,13 C48.199931,12.9980183 49.5445706,13.5940207 50.49,14.64 L59,24 Z" id="Shape" fill="#00838F" data-original="#00838F" class="active-path" style="fill:#F47C02" data-old_color="#00838F"/><path d="M56,24 L27.86,26.84 L1,24 L9.51,14.64 C10.4554294,13.5940207 11.800069,12.9980183 13.21,13 L43.79,13 C45.199931,12.9980183 46.5445706,13.5940207 47.49,14.64 L56,24 Z" id="Shape" fill="#00BCD4" data-original="#00BCD4" class="" style="fill:#F4D702" data-old_color="#00BCD4"/><path d="M41,2 L41,19 L19,19 L19,2 C19,1.44771525 19.4477153,1 20,1 L40,1 C40.5522847,1 41,1.44771525 41,2 Z" id="Shape" fill="#CFD8DC" data-original="#CFD8DC" class=""/><path d="M38,2 L38,19 L19,19 L19,2 C19,1.44771525 19.4477153,1 20,1 L37,1 C37.5522847,1 38,1.44771525 38,2 Z" id="Shape" fill="#F5F5F5" data-original="#F5F5F5" class=""/><path d="M38,49 L22,49 C21.4477153,49 21,48.5522847 21,48 C21,47.4477153 21.4477153,47 22,47 L38,47 C38.5522847,47 39,47.4477153 39,48 C39,48.5522847 38.5522847,49 38,49 Z" id="Shape" fill="#000000" data-original="#000000" class="" style="fill:#000000" data-old_color="#000000"/><path d="M59,24 L59,43 C59,44.3260824 58.4732158,45.597852 57.5355339,46.5355339 C56.597852,47.4732158 55.3260824,48 54,48 L6,48 C4.67391755,48 3.40214799,47.4732158 2.46446609,46.5355339 C1.5267842,45.597852 1,44.3260824 1,43 L1,24 L59,24 Z" id="Shape" fill="#0377BC" data-original="#0377BC" class="" style="fill:#F47C02" data-old_color="#0377BC"/><path d="M56,24 L56,43 C56,44.3260824 55.4732158,45.597852 54.5355339,46.5355339 C53.597852,47.4732158 52.3260824,48 51,48 L6,48 C4.67391755,48 3.40214799,47.4732158 2.46446609,46.5355339 C1.5267842,45.597852 1,44.3260824 1,43 L1,24 L56,24 Z" id="Shape" fill="#02A9F4" data-original="#02A9F4" class="" data-old_color="#02A9F4" style="fill:#F4D702"/><path d="M46,39 L46,48 L14,48 L14,39 C14,34.581722 17.581722,31 22,31 L38,31 C42.418278,31 46,34.581722 46,39 Z" id="Shape" fill="#37474F" data-original="#37474F"/><path d="M43,39 L43,48 L14,48 L14,39 C14,34.581722 17.581722,31 22,31 L35,31 C39.418278,31 43,34.581722 43,39 Z" id="Shape" fill="#545C60" data-original="#545C60"/><path d="M38,49 L22,49 C21.4477153,49 21,48.5522847 21,48 C21,47.4477153 21.4477153,47 22,47 L38,47 C38.5522847,47 39,47.4477153 39,48 C39,48.5522847 38.5522847,49 38,49 Z" id="Shape" fill="#000000" data-original="#000000" class="" style="fill:#000000" data-old_color="#000000"/><circle id="Oval" fill="#60A917" cx="53" cy="31" r="2" data-original="#60A917"/><path d="M42,42 L42,46 L18,46 L18,42 C18.0032948,40.8967981 18.8967981,40.0032948 20,40 L40,40 C41.1032019,40.0032948 41.9967052,40.8967981 42,42 Z" id="Shape" fill="#37474F" data-original="#37474F"/><path d="M39,42 L39,46 L18,46 L18,42 C18.0032948,40.8967981 18.8967981,40.0032948 20,40 L37,40 C38.1032019,40.0032948 38.9967052,40.8967981 39,42 Z" id="Shape" fill="#607D8B" data-original="#607D8B"/><path d="M49,56 L11,56 C10.6212279,56 10.2749648,55.7859976 10.1055728,55.4472136 C9.93618079,55.1084296 9.97273676,54.7030176 10.2,54.4 L15,48 L18,44 L42,44 L45,48 L49.8,54.4 C50.0272632,54.7030176 50.0638192,55.1084296 49.8944272,55.4472136 C49.7250352,55.7859976 49.3787721,56 49,56 Z" id="Shape" fill="#283593" data-original="#283593"/><path d="M46,56 L11,56 C10.6212279,56 10.2749648,55.7859976 10.1055728,55.4472136 C9.93618079,55.1084296 9.97273676,54.7030176 10.2,54.4 L15,48 L18,44 L39,44 L42,48 L46.8,54.4 C47.0272632,54.7030176 47.0638192,55.1084296 46.8944272,55.4472136 C46.7250352,55.7859976 46.3787721,56 46,56 Z" id="Shape" fill="#3F51B5" data-original="#3F51B5" class=""/><path d="M41.45,59 L18.55,59 C18.2111123,58.9992936 17.895642,58.8270019 17.7118755,58.5422648 C17.528109,58.2575277 17.501055,57.8990949 17.64,57.59 L21.73,48.59 C21.8928702,48.233174 22.2477729,48.0030722 22.64,48 L37.36,48 C37.7522271,48.0030722 38.1071298,48.233174 38.27,48.59 L42.36,57.59 C42.498945,57.8990949 42.471891,58.2575277 42.2881245,58.5422648 C42.104358,58.8270019 41.7888877,58.9992936 41.45,59 Z" id="Shape" fill="#CFD8DC" data-original="#CFD8DC" class=""/><path d="M38.9,59 L18.55,59 C18.2111123,58.9992936 17.895642,58.8270019 17.7118755,58.5422648 C17.528109,58.2575277 17.501055,57.8990949 17.64,57.59 L21.73,48.59 C21.8928702,48.233174 22.2477729,48.0030722 22.64,48 L34.8,48 C35.1938881,47.9974643 35.5515717,48.229369 35.71,48.59 L39.81,57.59 C39.948945,57.8990949 39.921891,58.2575277 39.7381245,58.5422648 C39.554358,58.8270019 39.2388877,58.9992936 38.9,59 Z" id="Shape" fill="#F5F5F5" data-original="#F5F5F5" class=""/><path d="M38,49 L22,49 C21.4477153,49 21,48.5522847 21,48 C21,47.4477153 21.4477153,47 22,47 L38,47 C38.5522847,47 39,47.4477153 39,48 C39,48.5522847 38.5522847,49 38,49 Z" id="Shape" fill="#000000" data-original="#000000" class="" style="fill:#000000" data-old_color="#000000"/><path d="M54,49 L45,49 C44.4477153,49 44,48.5522847 44,48 C44,47.4477153 44.4477153,47 45,47 L54,47 C56.209139,47 58,45.209139 58,43 L58,25 L2,25 L2,43 C2,45.209139 3.790861,47 6,47 L15,47 C15.5522847,47 16,47.4477153 16,48 C16,48.5522847 15.5522847,49 15,49 L6,49 C2.68766243,48.9966926 0.00330737898,46.3123376 0,43 L0,24 C-6.76353751e-17,23.4477153 0.44771525,23 1,23 L59,23 C59.5522847,23 60,23.4477153 60,24 L60,43 C59.9966926,46.3123376 57.3123376,48.9966926 54,49 Z" id="Shape" fill="#000000" data-original="#000000" class="" style="fill:#000000" data-old_color="#000000"/><path d="M59,25 L1,25 C0.604037482,25.0001416 0.245283686,24.7666351 0.0851109742,24.4045149 C-0.0750617378,24.0423947 -0.00648281724,23.6198707 0.26,23.327 L8.772,13.964 C9.91017672,12.7143877 11.5217412,12.0015245 13.212,12 L19,12 C19.5522847,12 20,12.4477153 20,13 C20,13.5522847 19.5522847,14 19,14 L13.212,14 C12.0849882,14.0008562 11.0104682,14.4764039 10.252,15.31 L3.261,23 L56.739,23 L49.748,15.31 C48.9895318,14.4764039 47.9150118,14.0008562 46.788,14 L41,14 C40.4477153,14 40,13.5522847 40,13 C40,12.4477153 40.4477153,12 41,12 L46.788,12 C48.4782588,12.0015245 50.0898233,12.7143877 51.228,13.964 L59.74,23.327 C60.0064828,23.6198707 60.0750617,24.0423947 59.914889,24.4045149 C59.7547163,24.7666351 59.3959625,25.0001416 59,25 Z" id="Shape" fill="#000000" data-original="#000000" class="" style="fill:#000000" data-old_color="#000000"/><path d="M46,49 L45,49 C44.4477153,49 44,48.5522847 44,48 C44,47.4477153 44.4477153,47 45,47 L45,39 C44.9955914,35.1358343 41.8641657,32.0044086 38,32 L22,32 C18.1358343,32.0044086 15.0044086,35.1358343 15,39 L15,47 C15.5522847,47 16,47.4477153 16,48 C16,48.5522847 15.5522847,49 15,49 L14,49 C13.4477153,49 13,48.5522847 13,48 L13,39 C13.006061,34.0319499 17.0319499,30.006061 22,30 L38,30 C42.9680501,30.006061 46.993939,34.0319499 47,39 L47,48 C47,48.5522847 46.5522847,49 46,49 Z" id="Shape" fill="#000000" data-original="#000000" class="" style="fill:#000000" data-old_color="#000000"/><path d="M38,49 L22,49 C21.4477153,49 21,48.5522847 21,48 C21,47.4477153 21.4477153,47 22,47 L38,47 C38.5522847,47 39,47.4477153 39,48 C39,48.5522847 38.5522847,49 38,49 Z" id="Shape" fill="#000000" data-original="#000000" class="" style="fill:#000000" data-old_color="#000000"/><path d="M53,34 C51.3431458,34 50,32.6568542 50,31 C50,29.3431458 51.3431458,28 53,28 C54.6568542,28 56,29.3431458 56,31 C56,32.6568542 54.6568542,34 53,34 Z M53,30 C52.4477153,30 52,30.4477153 52,31 C52,31.5522847 52.4477153,32 53,32 C53.5522847,32 54,31.5522847 54,31 C54,30.4477153 53.5522847,30 53,30 Z" id="Shape" fill="#000000" data-original="#000000" class="" style="fill:#000000" data-old_color="#000000"/><circle id="Oval" fill="#000000" cx="53" cy="37" r="1" data-original="#000000" class="" style="fill:#000000" data-old_color="#000000"/><circle id="Oval" fill="#000000" cx="53" cy="40" r="1" data-original="#000000" class="" style="fill:#000000" data-old_color="#000000"/><circle id="Oval" fill="#000000" cx="53" cy="43" r="1" data-original="#000000" class="" style="fill:#000000" data-old_color="#000000"/><path d="M49,57 L41.64,57 C41.0877153,57 40.64,56.5522847 40.64,56 C40.64,55.4477153 41.0877153,55 41.64,55 L49,55 L41.5,45 L18.5,45 L11,55 L18.36,55 C18.9122847,55 19.36,55.4477153 19.36,56 C19.36,56.5522847 18.9122847,57 18.36,57 L11,57 C10.2424559,57 9.54992965,56.5719952 9.21114562,55.8944272 C8.87236159,55.2168591 8.94547353,54.4060353 9.4,53.8 L17.2,43.4 C17.3888544,43.1481942 17.6852427,43 18,43 L42,43 C42.3147573,43 42.6111456,43.1481942 42.8,43.4 L50.6,53.8 C51.0545265,54.4060353 51.1276384,55.2168591 50.7888544,55.8944272 C50.4500704,56.5719952 49.7575441,57 49,57 Z" id="Shape" fill="#000000" data-original="#000000" class="" style="fill:#000000" data-old_color="#000000"/><path d="M42,45 L18,45 C17.4477153,45 17,44.5522847 17,44 L17,42 C17,40.3431458 18.3431458,39 20,39 L40,39 C41.6568542,39 43,40.3431458 43,42 L43,44 C43,44.5522847 42.5522847,45 42,45 Z M19,43 L41,43 L41,42 C41,41.4477153 40.5522847,41 40,41 L20,41 C19.4477153,41 19,41.4477153 19,42 L19,43 Z" id="Shape" fill="#000000" data-original="#000000" class="" style="fill:#000000" data-old_color="#000000"/><path d="M41.447,60 L18.553,60 C17.8731224,59.9999972 17.2398075,59.6546109 16.8716375,59.0830478 C16.5034676,58.5114847 16.4508706,57.7920313 16.732,57.173 L21.09,47.586 C21.2522734,47.2292035 21.6080352,47.0001085 22,47 L38,47 C38.3919648,47.0001085 38.7477266,47.2292035 38.91,47.586 L43.268,57.173 C43.5491294,57.7920313 43.4965324,58.5114847 43.1283625,59.0830478 C42.7601925,59.6546109 42.1268776,59.9999972 41.447,60 Z M22.647,49 L18.556,58 L41.456,58 L37.361,49 L22.647,49 Z" id="Shape" fill="#000000" data-original="#000000" class="" style="fill:#000000" data-old_color="#000000"/><path d="M41,20 L19,20 C18.4477153,20 18,19.5522847 18,19 L18,2 C18,0.8954305 18.8954305,2.02906125e-16 20,0 L40,0 C41.1045695,6.76353751e-17 42,0.8954305 42,2 L42,19 C42,19.5522847 41.5522847,20 41,20 Z M20,18 L40,18 L40,2 L20,2 L20,18 Z" id="Shape" fill="#000000" data-original="#000000" class="" style="fill:#000000" data-old_color="#000000"/><path d="M43,20 L17,20 C16.4477153,20 16,19.5522847 16,19 C16,18.4477153 16.4477153,18 17,18 L43,18 C43.5522847,18 44,18.4477153 44,19 C44,19.5522847 43.5522847,20 43,20 Z" id="Shape" fill="#000000" data-original="#000000" class="" style="fill:#000000" data-old_color="#000000"/><path d="M34,53 L26,53 C25.4477153,53 25,52.5522847 25,52 C25,51.4477153 25.4477153,51 26,51 L34,51 C34.5522847,51 35,51.4477153 35,52 C35,52.5522847 34.5522847,53 34,53 Z" id="Shape" fill="#000000" data-original="#000000" class="" style="fill:#000000" data-old_color="#000000"/><path d="M36,56 L24,56 C23.4477153,56 23,55.5522847 23,55 C23,54.4477153 23.4477153,54 24,54 L36,54 C36.5522847,54 37,54.4477153 37,55 C37,55.5522847 36.5522847,56 36,56 Z" id="Shape" fill="#000000" data-original="#000000" class="" style="fill:#000000" data-old_color="#000000"/><path d="M5,30 C4.44771525,30 4,29.5522847 4,29 L4,28 C4,27.4477153 4.44771525,27 5,27 C5.55228475,27 6,27.4477153 6,28 L6,29 C6,29.5522847 5.55228475,30 5,30 Z" id="Shape" fill="#000000" data-original="#000000" class="" style="fill:#000000" data-old_color="#000000"/><path d="M5,40 C4.44771525,40 4,39.5522847 4,39 L4,33 C4,32.4477153 4.44771525,32 5,32 C5.55228475,32 6,32.4477153 6,33 L6,39 C6,39.5522847 5.55228475,40 5,40 Z" id="Shape" fill="#000000" data-original="#000000" class="" style="fill:#000000" data-old_color="#000000"/></g></g></g> </svg>
